<?xml version="1.0" standalone="no"?>
<!DOCTYPE svg PUBLIC "-//W3C//DTD SVG 20010904//EN"
 "http://www.w3.org/TR/2001/REC-SVG-20010904/DTD/svg10.dtd">
<svg version="1.0" xmlns="http://www.w3.org/2000/svg"
 width="2048.000000pt" height="2048.000000pt" viewBox="0 0 2048.000000 2048.000000"
 preserveAspectRatio="xMidYMid meet">
<metadata>
Created by potrace 1.14, written by Peter Selinger 2001-2017
</metadata>
<g transform="translate(0.000000,2048.000000) scale(0.100000,-0.100000)"
fill="#000000" stroke="none">
<path d="M0 10240 l0 -10240 10240 0 10240 0 0 10240 0 10240 -10240 0 -10240
0 0 -10240z m7508 9102 c11 -151 -90 -707 -363 -2007 -157 -749 -204 -958
-309 -1393 -129 -528 -247 -1122 -226 -1130 4 -2 54 -49 111 -106 109 -109
226 -193 305 -220 26 -9 50 -14 52 -11 3 2 13 71 24 152 140 1108 460 2185
978 3298 51 110 272 594 365 800 105 233 182 381 209 402 13 11 50 25 83 32
32 7 78 20 103 28 25 8 72 19 105 23 33 5 74 12 91 15 27 6 38 2 70 -28 26
-22 54 -37 82 -42 60 -10 72 -32 72 -133 0 -64 -9 -120 -40 -243 -82 -327
-199 -953 -240 -1289 -55 -450 -74 -960 -51 -1335 17 -267 78 -806 94 -822 8
-7 345 346 451 472 248 296 625 830 838 1185 203 338 422 743 604 1115 108
223 166 349 378 830 31 72 74 155 94 185 41 61 55 68 202 101 149 35 161 37
180 32 10 -3 31 2 48 11 49 25 76 20 127 -24 26 -22 57 -40 70 -40 78 0 105
-43 105 -168 0 -126 2 -115 -180 -882 -141 -591 -184 -812 -226 -1145 -21
-174 -30 -700 -15 -906 42 -558 142 -1091 316 -1690 82 -279 65 -269 141 -89
218 521 503 1086 810 1607 329 558 800 1241 1128 1638 119 144 488 515 677
681 428 376 769 587 1083 668 121 32 116 1 -38 -215 -112 -155 -261 -391 -782
-1229 -220 -354 -386 -600 -617 -913 -896 -1215 -1449 -2126 -1856 -3061 -50
-115 -94 -220 -97 -233 -7 -25 37 -118 142 -308 179 -323 351 -582 613 -924
307 -400 419 -560 687 -981 93 -146 196 -296 228 -335 32 -38 134 -182 226
-320 92 -137 182 -268 200 -290 77 -95 86 -154 40 -260 -41 -94 -81 -120 -190
-118 -249 3 -664 246 -1248 729 -225 186 -498 476 -724 769 -153 198 -353 497
-417 623 -12 23 -25 42 -29 42 -22 0 -189 -696 -247 -1035 -121 -701 -135
-1240 -44 -1775 21 -128 57 -260 70 -260 12 0 11 -41 -2 -79 -13 -37 -47 -42
-93 -12 -106 70 -258 492 -331 922 -87 520 -84 1189 11 1836 40 274 114 651
194 981 l42 172 -72 162 c-347 781 -595 1818 -661 2768 -11 168 -14 834 -3
866 3 10 -11 -6 -31 -36 -549 -802 -1023 -1324 -1545 -1705 -52 -38 -98 -71
-102 -75 -16 -13 133 -528 254 -880 202 -590 340 -1004 452 -1360 394 -1250
744 -2381 801 -2589 29 -107 35 -139 26 -158 -6 -12 -15 -23 -20 -23 -15 0
-118 125 -211 256 -400 561 -1107 1886 -1525 2860 -175 407 -331 864 -445
1308 -27 103 -51 190 -52 192 -2 2 -47 -13 -98 -32 -219 -82 -488 -141 -697
-151 -142 -7 -123 16 -147 -183 -54 -442 -70 -709 -70 -1165 0 -405 11 -606
55 -960 63 -512 251 -1368 305 -1389 27 -10 3 -106 -26 -106 -5 0 -30 17 -57
38 -83 66 -173 261 -301 652 -246 750 -367 1440 -391 2229 -8 254 -1 685 14
911 7 105 7 106 -16 117 -42 19 -183 128 -238 184 -62 62 -120 145 -172 242
l-36 69 -11 -89 c-43 -335 -72 -748 -72 -1023 0 -625 102 -1490 271 -2290 76
-363 84 -462 49 -608 -20 -82 -42 -136 -86 -202 -13 -19 -40 -69 -61 -110 -26
-50 -49 -82 -72 -98 -69 -45 -110 -42 -174 16 -23 21 -62 51 -86 67 -154 104
-557 697 -919 1355 -553 1006 -941 1993 -1107 2820 -82 409 -106 640 -114
1085 l-6 350 -52 -145 c-84 -234 -165 -499 -222 -725 -178 -717 -294 -1843
-278 -2705 8 -422 37 -765 98 -1185 43 -299 37 -496 -21 -678 -39 -124 -94
-213 -155 -255 -41 -28 -54 -32 -100 -29 -45 3 -60 9 -94 40 -22 20 -57 47
-78 61 -62 39 -98 84 -161 201 -32 61 -73 134 -90 162 -17 29 -42 76 -56 105
-13 29 -43 94 -66 143 -126 271 -383 951 -546 1445 -242 731 -352 1339 -395
2170 -13 249 -7 878 10 1049 6 58 9 106 8 107 -1 1 -44 -93 -96 -209 -230
-515 -396 -811 -600 -1064 -148 -185 -294 -313 -338 -296 -7 3 -15 14 -18 24
-5 14 7 34 44 74 27 30 85 106 128 168 225 319 341 570 596 1277 236 658 454
1228 677 1775 65 160 142 358 170 440 61 174 141 365 170 405 16 22 33 31 78
40 31 6 66 15 77 20 11 5 52 12 92 15 66 6 72 5 83 -14 7 -14 21 -21 39 -21
77 0 81 -108 12 -325 -43 -133 -262 -1003 -325 -1290 -46 -210 -80 -409 -106
-630 -28 -228 -38 -734 -21 -1018 31 -511 106 -1080 195 -1482 54 -240 52
-237 60 -95 19 337 69 792 122 1115 159 955 480 1834 1049 2870 155 282 156
283 340 327 75 18 125 27 252 44 51 6 54 5 93 -30 26 -24 50 -36 69 -36 39 0
78 -34 91 -78 14 -51 12 -281 -5 -652 -61 -1330 -33 -1809 151 -2510 128 -489
391 -1191 654 -1745 l62 -130 -6 55 c-72 711 -72 1249 0 1885 72 644 227 1368
416 1945 279 853 879 2222 1205 2748 40 64 48 73 72 70 23 -3 26 -8 29 -46z
m10893 -3433 c21 -22 44 -34 77 -40 25 -5 53 -15 60 -23 35 -35 36 -168 1
-301 -31 -121 -67 -213 -179 -451 -120 -254 -203 -452 -250 -595 -154 -471
-253 -1034 -312 -1789 -17 -217 -17 -1122 0 -1355 59 -801 174 -1503 431
-2632 44 -191 114 -499 156 -683 363 -1592 455 -2216 442 -2980 -8 -435 -31
-613 -128 -1003 -94 -373 -231 -719 -422 -1062 -118 -211 -308 -461 -459 -601
-345 -322 -818 -562 -1383 -703 -568 -142 -1022 -112 -1341 88 -94 59 -292
220 -360 293 -73 79 -159 206 -234 346 -29 56 -57 102 -60 102 -4 0 -20 -33
-35 -72 -60 -153 -99 -193 -185 -192 -103 1 -233 88 -308 207 -83 131 -177
338 -206 454 -8 32 -40 130 -70 218 -90 260 -166 594 -245 1073 -129 779 -179
1416 -168 2137 8 495 36 821 113 1294 19 118 33 216 31 218 -2 1 -65 -61 -139
-140 -611 -643 -973 -951 -1417 -1206 -68 -39 -126 -72 -128 -74 -5 -6 81
-254 142 -407 132 -334 332 -742 565 -1155 370 -655 977 -1976 1141 -2484 59
-184 68 -386 15 -353 -17 10 -288 302 -416 447 -385 437 -825 999 -1078 1376
-215 322 -534 901 -717 1304 -135 298 -285 705 -355 965 l-23 85 -151 1 c-83
0 -178 6 -210 12 -33 7 -61 11 -63 9 -1 -2 -12 -64 -22 -138 -78 -527 -99
-1261 -56 -1909 63 -940 88 -1104 262 -1680 52 -175 67 -238 67 -284 -2 -65
-7 -72 -71 -82 -57 -8 -86 14 -145 113 -150 252 -335 904 -438 1538 -129 798
-144 1552 -49 2395 18 155 19 186 8 193 -8 4 -56 32 -108 61 -145 82 -274 180
-409 311 -142 137 -216 225 -315 375 -70 107 -167 288 -167 314 0 15 21 26 52
26 34 0 75 -36 288 -251 206 -208 281 -271 442 -372 80 -50 265 -133 274 -124
3 2 25 123 50 268 142 832 416 1956 521 2137 26 46 48 58 133 73 30 6 66 14
80 20 14 5 48 11 75 14 28 3 69 8 92 11 36 5 45 2 74 -25 18 -17 43 -31 56
-31 38 0 63 -18 80 -58 12 -28 17 -108 24 -357 12 -469 28 -694 75 -1065 32
-258 100 -642 130 -742 4 -14 24 -4 112 59 424 300 766 634 1462 1430 273 311
531 617 616 730 31 40 73 112 95 158 34 73 46 88 85 111 74 43 115 53 256 60
153 8 223 -3 259 -42 22 -23 22 -26 10 -111 -20 -147 -33 -204 -68 -307 -18
-55 -32 -101 -30 -102 1 -1 27 52 57 119 59 135 223 489 293 637 73 155 284
584 622 1265 174 352 337 681 360 730 24 50 82 171 130 270 48 99 106 221 130
270 51 107 129 270 217 455 36 74 141 293 233 485 166 349 547 1115 652 1315
302 572 477 858 714 1165 102 133 152 178 220 198 111 32 186 49 252 57 37 4
70 10 74 14 3 3 24 6 46 6 31 0 45 -6 68 -31z m-16191 -3504 c14 -15 35 -25
51 -25 66 0 75 -80 29 -252 -139 -519 -274 -1514 -352 -2593 -18 -243 -18
-1170 0 -1405 27 -354 102 -1023 117 -1039 7 -7 224 121 321 190 519 366 935
897 1173 1499 128 324 273 816 285 970 8 102 30 175 59 195 11 8 55 22 96 31
42 9 81 20 86 24 6 4 48 11 94 15 79 6 84 5 110 -18 14 -14 43 -28 64 -31 71
-13 69 14 57 -617 -21 -1116 -23 -1467 -11 -1718 11 -229 33 -506 47 -596 l6
-39 33 89 c148 407 435 899 968 1660 391 558 655 862 821 947 47 24 155 53
236 63 49 6 62 3 116 -24 38 -19 65 -39 72 -56 21 -45 14 -195 -13 -323 -56
-259 -140 -551 -290 -1012 -45 -140 -97 -306 -116 -367 -20 -67 -38 -113 -46
-113 -46 0 -58 133 -29 315 9 55 48 259 87 453 65 327 121 653 114 660 -1 2
-42 -41 -90 -95 -126 -141 -302 -379 -504 -683 -457 -686 -745 -1204 -862
-1547 l-27 -82 51 20 c211 83 657 299 916 444 379 212 641 382 1479 959 249
171 552 380 675 464 370 255 732 485 812 516 37 14 160 44 237 57 l78 13 28
-27 c16 -15 39 -27 54 -27 38 0 58 -34 58 -97 0 -56 -24 -161 -40 -177 -5 -5
-10 -19 -10 -29 0 -10 -20 -58 -45 -106 -40 -77 -63 -105 -178 -218 -72 -72
-157 -152 -187 -179 -30 -27 -57 -51 -60 -54 -3 -3 -52 -48 -110 -100 -1086
-980 -1918 -1976 -2458 -2944 -114 -205 -170 -323 -267 -561 -145 -360 -204
-602 -205 -842 0 -172 57 -416 132 -568 122 -244 343 -462 531 -525 114 -39
251 -60 381 -60 128 0 147 4 316 71 580 227 1234 729 1687 1296 300 376 508
784 541 1065 l9 70 -131 -5 c-168 -6 -222 -21 -701 -187 -779 -271 -1176 -431
-1477 -595 -75 -41 -143 -75 -152 -75 -9 0 -19 12 -22 27 -9 36 53 159 140
273 75 100 290 313 431 426 327 263 709 499 1025 632 279 117 664 206 895 206
134 0 217 -21 315 -78 14 -8 50 -26 80 -41 106 -52 181 -148 216 -276 24 -92
35 -284 24 -426 -28 -374 -247 -929 -548 -1392 -404 -624 -1086 -1227 -1776
-1573 -607 -304 -1121 -355 -1551 -152 -210 99 -529 364 -657 545 -23 32 -44
57 -46 54 -2 -2 4 -73 14 -157 21 -187 25 -481 6 -500 -21 -21 -62 10 -115 88
-223 334 -751 1497 -995 2189 -114 323 -242 753 -331 1110 -206 826 -282 1471
-268 2294 3 188 4 341 2 340 -2 -2 -31 -47 -66 -99 -218 -333 -512 -640 -834
-872 -180 -129 -411 -256 -607 -333 -85 -33 -97 -41 -93 -59 3 -12 16 -84 30
-161 110 -592 288 -1264 544 -2049 131 -399 196 -654 291 -1126 180 -900 268
-1612 214 -1726 -9 -19 -20 -34 -25 -34 -62 0 -285 374 -599 1005 -399 804
-559 1197 -760 1860 -204 677 -345 1296 -444 1964 -14 90 -26 165 -28 166 -2
2 -43 10 -93 19 -201 35 -322 97 -369 191 -34 67 -29 90 24 106 32 10 49 9 92
-4 66 -21 175 -37 252 -37 l59 0 -6 63 c-54 553 -66 741 -74 1172 -8 483 18
1012 72 1475 21 174 20 175 -28 90 -68 -119 -161 -253 -222 -318 -63 -68 -157
-121 -181 -101 -22 18 -17 38 26 86 108 123 273 539 420 1058 34 121 102 360
150 530 48 171 102 380 120 465 80 391 184 762 253 900 l32 65 85 22 c47 13
104 25 128 27 23 2 46 6 49 10 15 15 61 4 83 -19z"/>
<path d="M8143 16382 c-166 -433 -290 -827 -398 -1267 -61 -250 -141 -642
-132 -651 25 -25 583 232 706 325 l24 19 -26 183 c-65 453 -81 689 -82 1206 0
233 0 423 0 423 -1 0 -42 -107 -92 -238z"/>
<path d="M16885 12432 c-104 -224 -218 -468 -253 -542 -35 -74 -68 -144 -72
-155 -51 -129 -480 -1018 -940 -1950 -404 -818 -606 -1253 -788 -1695 -303
-738 -485 -1425 -566 -2150 -60 -531 -39 -1044 66 -1609 l21 -114 50 129 c65
167 201 434 306 602 344 551 760 940 1296 1212 292 149 620 239 823 227 71 -4
96 -11 159 -42 105 -52 147 -97 174 -186 32 -106 24 -278 -21 -446 -18 -67
-39 -130 -46 -140 -28 -37 -41 6 -47 164 -7 168 -22 260 -46 272 -195 103
-712 -267 -1314 -939 -417 -467 -676 -888 -772 -1256 -28 -109 -55 -296 -55
-386 0 -163 53 -385 129 -543 105 -219 270 -386 434 -442 154 -52 422 -69 599
-38 151 26 366 105 593 216 424 207 747 490 975 852 207 330 320 678 382 1177
9 69 13 224 12 450 0 369 -13 540 -70 930 -71 487 -126 769 -443 2260 -213
1004 -318 1609 -386 2225 -75 691 -83 1511 -21 2185 7 74 12 136 12 137 -1 1
-87 -181 -191 -405z"/>
<path d="M10723 7175 c-35 -145 -98 -437 -109 -502 l-7 -43 95 0 c53 0 109 3
125 6 l30 6 -18 96 c-17 88 -73 465 -81 537 -2 20 -14 -12 -35 -100z"/>
<path d="M6389 6951 c-476 -293 -1174 -616 -1457 -676 -146 -30 -179 -20 -317
100 -19 17 -48 55 -65 85 -16 30 -30 47 -30 37 0 -29 66 -333 120 -547 61
-247 114 -433 250 -890 60 -201 122 -411 138 -468 l28 -103 33 113 c154 525
496 1196 900 1763 164 230 396 530 469 608 20 20 34 37 32 37 -3 0 -48 -27
-101 -59z"/>
</g>
</svg>
