{
  "accessors": [
    {
      "bufferView": 2,
      "componentType": 5126,
      "count": 39976,
      "max": [
        11.805800437927246,
        38.449798583984375,
        10.451999664306641
      ],
      "min": [
        -9.7545204162597656,
        0.25766199827194214,
        -13.057499885559082
      ],
      "type": "VEC3"
    },
    {
      "bufferView": 2,
      "byteOffset": 479712,
      "componentType": 5126,
      "count": 39976,
      "max": [
        0.9999924898147583,
        1,
        0.99988633394241333
      ],
      "min": [
        -0.99996864795684814,
        -0.99999988079071045,
        -0.99988174438476562
      ],
      "type": "VEC3"
    },
    {
      "bufferView": 3,
      "componentType": 5126,
      "count": 39976,
      "max": [
        1,
        1,
        0.99957633018493652,
        1
      ],
      "min": [
        -1,
        -1,
        -0.99920517206192017,
        -1
      ],
      "type": "VEC4"
    },
    {
      "bufferView": 1,
      "componentType": 5126,
      "count": 39976,
      "max": [
        0.9997209906578064,
        0.99975597858428955
      ],
      "min": [
        0.00024399999529123306,
        0.00024799999664537609
      ],
      "type": "VEC2"
    },
    {
      "bufferView": 0,
      "componentType": 5125,
      "count": 182001,
      "max": [
        39975
      ],
      "min": [
        0
      ],
      "type": "SCALAR"
    }
  ],
  "asset": {
    "extras": {
      "author": "smallfly (https://sketchfab.com/smallfly)",
      "license": "COPYRIGHT TO smallfly",
      "source": "https://sketchfab.com/3d-models/waxhead-sculpture-1-a9ce608fa5e04cf6ab1f1eae5f0b4ff2",
      "title": "Waxhead sculpture #1"
    },
    "generator": "Sketchfab-10.33.2",
    "version": "2.0"
  },
  "bufferViews": [
    {
      "buffer": 0,
      "byteLength": 728004,
      "byteOffset": 0,
      "name": "floatBufferViews",
      "target": 34963
    },
    {
      "buffer": 0,
      "byteLength": 319808,
      "byteOffset": 728004,
      "byteStride": 8,
      "name": "floatBufferViews",
      "target": 34962
    },
    {
      "buffer": 0,
      "byteLength": 959424,
      "byteOffset": 1047812,
      "byteStride": 12,
      "name": "floatBufferViews",
      "target": 34962
    },
    {
      "buffer": 0,
      "byteLength": 639616,
      "byteOffset": 2007236,
      "byteStride": 16,
      "name": "floatBufferViews",
      "target": 34962
    }
  ],
  "buffers": [
    {
      "byteLength": 2646852,
      "uri": "scene.bin"
    }
  ],
  "images": [
    {
      "uri": "textures/waxhead-Statue-03-RetopoReprojection_u1_v1_baseColor.jpeg"
    },
    {
      "uri": "textures/waxhead-Statue-03-RetopoReprojection_u1_v1_metallicRoughness.png"
    },
    {
      "uri": "textures/waxhead-Statue-03-RetopoReprojection_u1_v1_normal.png"
    }
  ],
  "materials": [
    {
      "doubleSided": true,
      "emissiveFactor": [
        0,
        0,
        0
      ],
      "name": "waxhead-Statue-03-RetopoReprojection_u1_v1",
      "normalTexture": {
        "index": 2,
        "scale": 1,
        "texCoord": 0
      },
      "occlusionTexture": {
        "index": 1,
        "strength": 1,
        "texCoord": 0
      },
      "pbrMetallicRoughness": {
        "baseColorFactor": [
          1,
          1,
          1,
          1
        ],
        "baseColorTexture": {
          "index": 0,
          "texCoord": 0
        },
        "metallicFactor": 1,
        "metallicRoughnessTexture": {
          "index": 1,
          "texCoord": 0
        },
        "roughnessFactor": 1
      }
    }
  ],
  "meshes": [
    {
      "name": "defaultMaterial",
      "primitives": [
        {
          "attributes": {
            "NORMAL": 1,
            "POSITION": 0,
            "TANGENT": 2,
            "TEXCOORD_0": 3
          },
          "indices": 4,
          "material": 0,
          "mode": 4
        }
      ]
    }
  ],
  "nodes": [
    {
      "children": [
        1
      ],
      "name": "RootNode (gltf orientation matrix)",
      "rotation": [
        -0.70710678118654746,
        -0,
        -0,
        0.70710678118654757
      ]
    },
    {
      "children": [
        2
      ],
      "name": "RootNode (model correction matrix)"
    },
    {
      "children": [
        3
      ],
      "matrix": [
        1,
        0,
        0,
        0,
        0,
        -4.3711390063094768e-08,
        0.999999999999999,
        0,
        0,
        -0.999999999999999,
        -4.3711390063094768e-08,
        0,
        0,
        0,
        0,
        1
      ],
      "name": "Collada visual scene group"
    },
    {
      "children": [
        4
      ],
      "name": "default"
    },
    {
      "mesh": 0,
      "name": "defaultMaterial"
    }
  ],
  "samplers": [
    {
      "magFilter": 9729,
      "minFilter": 9987,
      "wrapS": 10497,
      "wrapT": 10497
    }
  ],
  "scene": 0,
  "scenes": [
    {
      "name": "OSG_Scene",
      "nodes": [
        0
      ]
    }
  ],
  "textures": [
    {
      "sampler": 0,
      "source": 0
    },
    {
      "sampler": 0,
      "source": 1
    },
    {
      "sampler": 0,
      "source": 2
    }
  ]
}

